<svg width="202" height="60" viewBox="0 0 202 60" fill="none" xmlns="http://www.w3.org/2000/svg">
<g clip-path="url(#clip0_224_4)">
<path d="M164.3 42.3001V51.7001C164.3 52.0001 164.4 52.1001 164.6 52.1001H169.6C169.9 52.1001 170 52.0001 170 51.7001V50.8001C170 50.5001 169.9 50.4001 169.6 50.4001H166.3V42.3001C166.3 42.0001 166.2 41.9001 165.9 41.9001H164.6C164.4 41.9001 164.3 42.1001 164.3 42.3001ZM146.6 48.3001L147.1 46.6001C147.3 46.0001 147.5 44.1001 147.6 43.9001C147.6 44.1001 147.8 46.0001 148 46.6001L148.5 48.3001H146.6ZM143.7 51.7001C143.6 51.9001 143.7 52.1001 144 52.1001H145.2C145.5 52.1001 145.6 52.0001 145.6 51.7001L146.1 49.9001H148.9L149.4 51.7001C149.5 51.9001 149.6 52.1001 149.8 52.1001H151.1C151.4 52.1001 151.4 52.0001 151.4 51.7001L148.6 42.3001C148.5 42.0001 148.4 41.9001 148.1 41.9001H146.8C146.5 41.9001 146.4 42.0001 146.3 42.3001L143.7 51.7001ZM125.5 42.3001V43.2001C125.5 43.5001 125.6 43.6001 125.9 43.6001H128V51.7001C128 52.0001 128.1 52.1001 128.4 52.1001H129.7C130 52.1001 130.1 52.0001 130.1 51.7001V43.6001H132.2C132.5 43.6001 132.6 43.5001 132.6 43.2001V42.3001C132.6 42.0001 132.5 41.9001 132.2 41.9001H125.9C125.6 41.9001 125.5 42.0001 125.5 42.3001ZM110.7 42.3001V51.7001C110.7 52.0001 110.8 52.1001 111.1 52.1001H112.4C112.7 52.1001 112.8 52.0001 112.8 51.7001V42.3001C112.8 42.0001 112.7 41.9001 112.4 41.9001H111.1C110.8 41.9001 110.7 42.1001 110.7 42.3001ZM92.5 43.6001H94C95 43.6001 95.6 44.0001 95.6 44.7001V45.7001C95.6 46.4001 95 46.8001 94 46.8001H92.5V43.6001ZM90.5 42.3001V51.7001C90.5 52.0001 90.6 52.1001 90.9 52.1001H92.2C92.5 52.1001 92.6 52.0001 92.6 51.7001V48.5001H94C96.7 48.5001 97.6 47.3001 97.6 46.1001V44.4001C97.6 43.1001 96.7 42.0001 94 42.0001H90.9C90.6 41.9001 90.5 42.1001 90.5 42.3001ZM21.9 15.5001C21.9 18.5001 19.5 20.7001 15.6 20.7001H9.6V10.2001H15.6C19.5 10.2001 21.9 12.0001 21.9 15.5001ZM27.1 15.3001C27.1 9.3001 22.9 5.5001 16 5.5001H7.1C5.6 5.5001 4.5 6.6001 4.5 8.1001V32.3001C4.5 33.7001 5.6 34.8001 7.1 34.8001C8.5 34.8001 9.6 33.7001 9.6 32.3001V25.3001H15.4C21.9 25.3001 27.1 21.9001 27.1 15.3001ZM34.2 46.0001H31V42.3001C31 42.0001 30.9 41.9001 30.6 41.9001H29.3C29 41.9001 28.9 42.0001 28.9 42.3001V51.7001C28.9 52.0001 29 52.1001 29.3 52.1001H30.6C30.9 52.1001 31 52.0001 31 51.7001V47.7001H34.2V51.7001C34.2 52.0001 34.3 52.1001 34.6 52.1001H35.9C36.2 52.1001 36.3 52.0001 36.3 51.7001V42.3001C36.3 42.0001 36.2 41.9001 35.9 41.9001H34.6C34.3 41.9001 34.2 42.0001 34.2 42.3001V46.0001ZM51 15.1001C51 18.1001 48.7 20.0001 45 20.0001H37.5V10.2001H45C48.7 10.2001 51 11.9001 51 15.1001ZM56.2 14.8001C56.2 12.2001 55.3 10.0001 53.8 8.4001C51.9 6.6001 49.1 5.5001 45.4 5.5001H35C33.5 5.5001 32.4 6.6001 32.4 8.1001V32.3001C32.4 33.7001 33.5 34.8001 35 34.8001C36.4 34.8001 37.5 33.7001 37.5 32.3001V24.5001H44L51.1 33.5001C51.7 34.3001 52.4 34.8001 53.6 34.8001C54.8 34.8001 56.1 33.8001 56.1 32.4001C56.1 31.6001 55.8 31.1001 55.3 30.4001L49.7 23.4001C53.5 22.3001 56.2 19.5001 56.2 14.8001ZM54.9 49.4001C54.9 50.1001 54.3 50.5001 53.3 50.5001C52.3 50.5001 51.7 50.1001 51.7 49.4001V44.6001C51.7 43.9001 52.3 43.5001 53.3 43.5001C54.3 43.5001 54.9 43.9001 54.9 44.6001V49.4001ZM56.9 49.8001V44.3001C56.9 43.0001 56 41.9001 53.3 41.9001C50.6 41.9001 49.7 43.1001 49.7 44.3001V49.8001C49.7 51.1001 50.6 52.2001 53.3 52.2001C56 52.2001 56.9 51.0001 56.9 49.8001ZM67.9 32.3001V7.8001C67.9 6.4001 66.8 5.3001 65.4 5.3001C63.9 5.3001 62.8 6.4001 62.8 7.8001V32.3001C62.8 33.7001 63.9 34.8001 65.4 34.8001C66.8 34.9001 67.9 33.7001 67.9 32.3001ZM73.7 41.8001C71.1 41.8001 70.3 43.0001 70.3 44.2001V45.1001C70.3 46.0001 70.9 46.8001 71.7 47.0001L74 47.9001C74.7 48.2001 75.3 48.4001 75.3 49.0001V49.5001C75.3 50.2001 74.7 50.6001 73.7 50.6001C72.7 50.6001 72.1 50.3001 72.1 49.5001V48.8001C72.1 48.5001 72 48.4001 71.7 48.4001H70.4C70.1 48.4001 70 48.5001 70 48.8001V49.7001C70 51.0001 70.9 52.1001 73.6 52.1001C76.3 52.1001 77.1 50.9001 77.1 49.7001V48.6001C77.1 47.5001 76.4 46.8001 75.3 46.5001L72.7 45.6001C72.5 45.5001 72.1 45.3001 72.1 44.8001V44.6001C72.1 43.9001 72.6 43.5001 73.6 43.5001C74.6 43.5001 75 43.8001 75 44.6001V44.9001C75 45.2001 75.1 45.3001 75.3 45.3001H76.6C76.9 45.3001 77 45.2001 77 44.9001V44.3001C77.1 43.0001 76.3 41.8001 73.7 41.8001ZM104.3 32.3001V7.9001C104.3 6.5001 103.2 5.3001 101.7 5.3001H101.2C100.2 5.3001 99.4 5.8001 98.9 6.6001L90 20.5001L81.2 6.7001C80.7 5.9001 80 5.3001 78.8 5.3001H78.3C76.8 5.3001 75.7 6.5001 75.7 7.9001V32.3001C75.7 33.7001 76.8 34.8001 78.2 34.8001C79.6 34.8001 80.7 33.7001 80.7 32.3001V14.9001L87.8 25.5001C88.3 26.3001 89 26.8001 89.9 26.8001C90.9 26.8001 91.5 26.3001 92.1 25.5001L99.2 14.8001V32.3001C99.2 33.7001 100.4 34.8001 101.7 34.8001C103.2 34.9001 104.3 33.7001 104.3 32.3001ZM129.2 23.1001H119L124.1 11.3001L129.2 23.1001ZM138.2 31.3001L127.3 7.2001C126.7 5.9001 125.7 5.1001 124.3 5.1001H124.1C122.6 5.1001 121.6 5.9001 121 7.2001L110.2 31.4001C110 31.8001 109.9 32.2001 109.9 32.6001C109.9 33.9001 110.9 35.0001 112.3 35.0001C113.4 35.0001 114.3 34.4001 114.7 33.4001L117.2 27.8001H131.4L133.8 33.3001C134.3 34.4001 135.1 35.1001 136.3 35.1001C137.7 35.1001 138.7 34.0001 138.7 32.6001C138.5 32.1001 138.4 31.7001 138.2 31.3001ZM163.7 9.6001C164.1 9.1001 164.4 8.5001 164.4 7.8001C164.4 6.4001 163.4 5.3001 161.9 5.3001C160.8 5.3001 160.1 5.9001 159.4 6.8001L151.2 18.5001L143.1 6.8001C142.5 5.9001 141.7 5.3001 140.6 5.3001C139.1 5.3001 138 6.4001 138 7.8001C138 8.5001 138.2 9.1001 138.6 9.6001L148.6 23.4001V32.4001C148.6 33.8001 149.7 34.9001 151.1 34.9001C152.6 34.9001 153.7 33.8001 153.7 32.4001V23.3001L163.7 9.6001ZM183.2 23.1001H173L178.1 11.3001L183.2 23.1001ZM192.5 32.4001C192.5 32.1001 192.4 31.7001 192.2 31.3001L181.4 7.2001C180.8 5.9001 179.8 5.1001 178.4 5.1001H178.2C176.7 5.1001 175.7 5.9001 175.1 7.2001L164.3 31.4001C164.1 31.8001 164 32.2001 164 32.6001C164 33.9001 165 35.0001 166.4 35.0001C167.5 35.0001 168.4 34.4001 168.8 33.4001L171.3 27.8001H185.5L187.9 33.3001C188.4 34.4001 189.2 35.1001 190.4 35.1001C191.4 34.9001 192.5 33.8001 192.5 32.4001Z" fill="#005B7F"/>
</g>
<defs>
<clipPath id="clip0_224_4">
<rect width="201.5" height="59.4" fill="white"/>
</clipPath>
</defs>
</svg>
