<svg width="464" height="42" viewBox="0 0 464 42" fill="none" xmlns="http://www.w3.org/2000/svg">
<path d="M464 30C464 36.6274 458.627 42 452 42C445.373 42 440.226 35.9425 435.707 31.0941C432.787 27.96 428.622 26 424 26C420.815 26 417.847 26.9307 415.354 28.5351C407.923 33.3168 400.837 42 392 42C383.163 42 376.077 33.3167 368.646 28.5351C366.153 26.9307 363.185 26 360 26C356.815 26 353.847 26.9307 351.354 28.5351C343.923 33.3168 336.837 42 328 42C319.163 42 312.077 33.3167 304.646 28.5351C302.153 26.9307 299.185 26 296 26C292.815 26 289.847 26.9307 287.354 28.5351C279.923 33.3168 272.837 42 264 42C255.163 42 248.077 33.3167 240.646 28.5351C238.153 26.9307 235.185 26 232 26C228.815 26 225.847 26.9307 223.354 28.5351C215.923 33.3168 208.837 42 200 42C191.163 42 184.077 33.3167 176.646 28.5351C174.153 26.9307 171.185 26 168 26C164.815 26 161.847 26.9307 159.354 28.5351C151.923 33.3168 144.837 42 136 42C127.163 42 120.077 33.3167 112.646 28.5351C110.153 26.9307 107.185 26 104 26C100.815 26 97.847 26.9307 95.3537 28.5351C87.9226 33.3168 80.8366 42 72 42C63.1634 42 56.0774 33.3167 48.6463 28.5351C46.153 26.9307 43.1852 26 40 26C35.3778 26 31.2134 27.96 28.2926 31.0941C23.7742 35.9425 18.6274 42 12 42C5.37258 42 0 36.6274 0 30V0H464V30Z" fill="white"/>
</svg>
